<mxfile host="app.diagrams.net" agent="Mozilla/5.0 (Windows NT 10.0; Win64; x64) AppleWebKit/537.36 (KHTML, like Gecko) Chrome/131.0.0.0 Safari/537.36" version="25.0.1">
  <diagram name="Page-1" id="D5_vWhx4JLqgsvbsOzQe">
    <mxGraphModel dx="1812" dy="434" grid="1" gridSize="10" guides="1" tooltips="1" connect="1" arrows="1" fold="1" page="1" pageScale="1" pageWidth="827" pageHeight="1169" math="0" shadow="0">
      <root>
        <mxCell id="0" />
        <mxCell id="1" parent="0" />
        <mxCell id="L7gm5N8w6A1JBYY2NzbU-59" value="" style="rounded=0;whiteSpace=wrap;html=1;" vertex="1" parent="1">
          <mxGeometry x="-827" y="2185" width="827" height="150" as="geometry" />
        </mxCell>
        <mxCell id="UK8pHS0gRKNLv6GSxuRK-1" value="logo" style="rounded=0;whiteSpace=wrap;html=1;" parent="1" vertex="1">
          <mxGeometry x="-827" width="137" height="40" as="geometry" />
        </mxCell>
        <mxCell id="UK8pHS0gRKNLv6GSxuRK-7" value="home" style="rounded=0;whiteSpace=wrap;html=1;" parent="1" vertex="1">
          <mxGeometry x="-690" width="47" height="40" as="geometry" />
        </mxCell>
        <mxCell id="UK8pHS0gRKNLv6GSxuRK-15" value="" style="rounded=0;whiteSpace=wrap;html=1;" parent="1" vertex="1">
          <mxGeometry x="-460" width="210" height="40" as="geometry" />
        </mxCell>
        <mxCell id="UK8pHS0gRKNLv6GSxuRK-16" value="search bar" style="rounded=0;whiteSpace=wrap;html=1;" parent="1" vertex="1">
          <mxGeometry x="-250" width="130" height="40" as="geometry" />
        </mxCell>
        <mxCell id="UK8pHS0gRKNLv6GSxuRK-17" value="profile" style="rounded=0;whiteSpace=wrap;html=1;" parent="1" vertex="1">
          <mxGeometry x="-120" width="60" height="40" as="geometry" />
        </mxCell>
        <mxCell id="UK8pHS0gRKNLv6GSxuRK-18" value="profile&lt;br&gt;setting" style="rounded=0;whiteSpace=wrap;html=1;" parent="1" vertex="1">
          <mxGeometry x="-60" width="60" height="40" as="geometry" />
        </mxCell>
        <mxCell id="UK8pHS0gRKNLv6GSxuRK-38" value="genres" style="rounded=0;whiteSpace=wrap;html=1;" parent="1" vertex="1">
          <mxGeometry x="-643" width="47" height="40" as="geometry" />
        </mxCell>
        <mxCell id="UK8pHS0gRKNLv6GSxuRK-39" value="new" style="rounded=0;whiteSpace=wrap;html=1;" parent="1" vertex="1">
          <mxGeometry x="-596" width="47" height="40" as="geometry" />
        </mxCell>
        <mxCell id="UK8pHS0gRKNLv6GSxuRK-40" value="populair" style="rounded=0;whiteSpace=wrap;html=1;" parent="1" vertex="1">
          <mxGeometry x="-549" width="47" height="40" as="geometry" />
        </mxCell>
        <mxCell id="UK8pHS0gRKNLv6GSxuRK-41" value="my list" style="rounded=0;whiteSpace=wrap;html=1;" parent="1" vertex="1">
          <mxGeometry x="-502" width="47" height="40" as="geometry" />
        </mxCell>
        <mxCell id="UK8pHS0gRKNLv6GSxuRK-72" value="1" style="rounded=0;whiteSpace=wrap;html=1;" parent="1" vertex="1">
          <mxGeometry x="-807.5" y="2005" width="120" height="140" as="geometry" />
        </mxCell>
        <mxCell id="UK8pHS0gRKNLv6GSxuRK-73" value="2" style="rounded=0;whiteSpace=wrap;html=1;" parent="1" vertex="1">
          <mxGeometry x="-677" y="2005" width="120" height="140" as="geometry" />
        </mxCell>
        <mxCell id="UK8pHS0gRKNLv6GSxuRK-74" value="3" style="rounded=0;whiteSpace=wrap;html=1;" parent="1" vertex="1">
          <mxGeometry x="-546.5" y="2005" width="120" height="140" as="geometry" />
        </mxCell>
        <mxCell id="UK8pHS0gRKNLv6GSxuRK-75" value="4" style="rounded=0;whiteSpace=wrap;html=1;" parent="1" vertex="1">
          <mxGeometry x="-417.5" y="2005" width="120" height="140" as="geometry" />
        </mxCell>
        <mxCell id="UK8pHS0gRKNLv6GSxuRK-76" value="5" style="rounded=0;whiteSpace=wrap;html=1;" parent="1" vertex="1">
          <mxGeometry x="-287.5" y="2005" width="120" height="140" as="geometry" />
        </mxCell>
        <mxCell id="UK8pHS0gRKNLv6GSxuRK-77" value="6" style="rounded=0;whiteSpace=wrap;html=1;" parent="1" vertex="1">
          <mxGeometry x="-157.5" y="2005" width="120" height="140" as="geometry" />
        </mxCell>
        <mxCell id="UK8pHS0gRKNLv6GSxuRK-78" value="-&amp;gt;" style="rounded=0;whiteSpace=wrap;html=1;" parent="1" vertex="1">
          <mxGeometry x="-37.5" y="2005" width="20" height="140" as="geometry" />
        </mxCell>
        <mxCell id="UK8pHS0gRKNLv6GSxuRK-82" value="socials" style="rounded=0;whiteSpace=wrap;html=1;" parent="1" vertex="1">
          <mxGeometry x="-692" y="2280" width="38" height="40" as="geometry" />
        </mxCell>
        <mxCell id="UK8pHS0gRKNLv6GSxuRK-83" value="Terms of use" style="rounded=0;whiteSpace=wrap;html=1;" parent="1" vertex="1">
          <mxGeometry x="-800" y="2200" width="98" height="30" as="geometry" />
        </mxCell>
        <mxCell id="UK8pHS0gRKNLv6GSxuRK-88" value="privacy policy" style="rounded=0;whiteSpace=wrap;html=1;" parent="1" vertex="1">
          <mxGeometry x="-692" y="2200" width="98" height="30" as="geometry" />
        </mxCell>
        <mxCell id="UK8pHS0gRKNLv6GSxuRK-89" value="Cookie settings" style="rounded=0;whiteSpace=wrap;html=1;" parent="1" vertex="1">
          <mxGeometry x="-584" y="2200" width="98" height="30" as="geometry" />
        </mxCell>
        <mxCell id="UK8pHS0gRKNLv6GSxuRK-91" value="faq" style="rounded=0;whiteSpace=wrap;html=1;" parent="1" vertex="1">
          <mxGeometry x="-800" y="2240" width="98" height="30" as="geometry" />
        </mxCell>
        <mxCell id="UK8pHS0gRKNLv6GSxuRK-92" value="help Center" style="rounded=0;whiteSpace=wrap;html=1;" parent="1" vertex="1">
          <mxGeometry x="-692" y="2240" width="98" height="30" as="geometry" />
        </mxCell>
        <mxCell id="UK8pHS0gRKNLv6GSxuRK-93" value="Contact us" style="rounded=0;whiteSpace=wrap;html=1;" parent="1" vertex="1">
          <mxGeometry x="-584" y="2240" width="98" height="30" as="geometry" />
        </mxCell>
        <mxCell id="UK8pHS0gRKNLv6GSxuRK-94" value="Follow us:" style="rounded=0;whiteSpace=wrap;html=1;" parent="1" vertex="1">
          <mxGeometry x="-799.5" y="2285" width="98" height="30" as="geometry" />
        </mxCell>
        <mxCell id="UK8pHS0gRKNLv6GSxuRK-96" value="socials" style="rounded=0;whiteSpace=wrap;html=1;" parent="1" vertex="1">
          <mxGeometry x="-635" y="2280" width="38" height="40" as="geometry" />
        </mxCell>
        <mxCell id="UK8pHS0gRKNLv6GSxuRK-97" value="socials" style="rounded=0;whiteSpace=wrap;html=1;" parent="1" vertex="1">
          <mxGeometry x="-579" y="2280" width="38" height="40" as="geometry" />
        </mxCell>
        <mxCell id="UK8pHS0gRKNLv6GSxuRK-99" value="socials" style="rounded=0;whiteSpace=wrap;html=1;" parent="1" vertex="1">
          <mxGeometry x="-524" y="2280" width="38" height="40" as="geometry" />
        </mxCell>
        <mxCell id="L7gm5N8w6A1JBYY2NzbU-56" value="" style="group" vertex="1" connectable="0" parent="1">
          <mxGeometry x="-810" y="60" width="790" height="480" as="geometry" />
        </mxCell>
        <mxCell id="UK8pHS0gRKNLv6GSxuRK-19" value="populair today -&amp;gt; automatically swipes posters of the series or film" style="rounded=0;whiteSpace=wrap;html=1;" parent="L7gm5N8w6A1JBYY2NzbU-56" vertex="1">
          <mxGeometry width="780.125" height="480" as="geometry" />
        </mxCell>
        <mxCell id="UK8pHS0gRKNLv6GSxuRK-109" value="name" style="rounded=0;whiteSpace=wrap;html=1;" parent="L7gm5N8w6A1JBYY2NzbU-56" vertex="1">
          <mxGeometry x="29.615856481481483" y="330" width="230.4258101851852" height="60" as="geometry" />
        </mxCell>
        <mxCell id="UK8pHS0gRKNLv6GSxuRK-110" value="Play" style="rounded=0;whiteSpace=wrap;html=1;" parent="L7gm5N8w6A1JBYY2NzbU-56" vertex="1">
          <mxGeometry x="29.615856481481483" y="405" width="80.54068287037038" height="45" as="geometry" />
        </mxCell>
        <mxCell id="UK8pHS0gRKNLv6GSxuRK-111" value="Info" style="rounded=0;whiteSpace=wrap;html=1;" parent="L7gm5N8w6A1JBYY2NzbU-56" vertex="1">
          <mxGeometry x="133.27135416666667" y="405" width="126.7703125" height="45" as="geometry" />
        </mxCell>
        <mxCell id="UK8pHS0gRKNLv6GSxuRK-113" value="-&amp;gt;" style="rounded=0;whiteSpace=wrap;html=1;" parent="L7gm5N8w6A1JBYY2NzbU-56" vertex="1">
          <mxGeometry x="760.375" width="29.625" height="480" as="geometry" />
        </mxCell>
        <mxCell id="L7gm5N8w6A1JBYY2NzbU-58" value="" style="rounded=0;whiteSpace=wrap;html=1;" vertex="1" parent="1">
          <mxGeometry x="-355" y="2200" width="340" height="120" as="geometry" />
        </mxCell>
        <mxCell id="L7gm5N8w6A1JBYY2NzbU-62" value="&lt;h1 style=&quot;margin-top: 0px;&quot;&gt;Heading&lt;/h1&gt;&lt;p&gt;Lorem ipsum dolor sit amet, consectetur adipisicing elit, sed do eiusmod tempor incididunt ut labore et dolore magna aliqua.&lt;/p&gt;" style="text;html=1;whiteSpace=wrap;overflow=hidden;rounded=0;" vertex="1" parent="1">
          <mxGeometry x="-337.5" y="2195" width="180" height="120" as="geometry" />
        </mxCell>
        <mxCell id="UK8pHS0gRKNLv6GSxuRK-47" value="My List" style="rounded=0;whiteSpace=wrap;html=1;" parent="1" vertex="1">
          <mxGeometry x="-810" y="560" width="120" height="40" as="geometry" />
        </mxCell>
        <mxCell id="UK8pHS0gRKNLv6GSxuRK-48" value="1" style="rounded=0;whiteSpace=wrap;html=1;" parent="1" vertex="1">
          <mxGeometry x="-810" y="605" width="120" height="140" as="geometry" />
        </mxCell>
        <mxCell id="UK8pHS0gRKNLv6GSxuRK-49" value="2" style="rounded=0;whiteSpace=wrap;html=1;" parent="1" vertex="1">
          <mxGeometry x="-679.5" y="605" width="120" height="140" as="geometry" />
        </mxCell>
        <mxCell id="UK8pHS0gRKNLv6GSxuRK-50" value="3" style="rounded=0;whiteSpace=wrap;html=1;" parent="1" vertex="1">
          <mxGeometry x="-549" y="605" width="120" height="140" as="geometry" />
        </mxCell>
        <mxCell id="UK8pHS0gRKNLv6GSxuRK-51" value="4" style="rounded=0;whiteSpace=wrap;html=1;" parent="1" vertex="1">
          <mxGeometry x="-420" y="605" width="120" height="140" as="geometry" />
        </mxCell>
        <mxCell id="UK8pHS0gRKNLv6GSxuRK-52" value="5" style="rounded=0;whiteSpace=wrap;html=1;" parent="1" vertex="1">
          <mxGeometry x="-290" y="605" width="120" height="140" as="geometry" />
        </mxCell>
        <mxCell id="UK8pHS0gRKNLv6GSxuRK-53" value="6" style="rounded=0;whiteSpace=wrap;html=1;" parent="1" vertex="1">
          <mxGeometry x="-160" y="605" width="120" height="140" as="geometry" />
        </mxCell>
        <mxCell id="UK8pHS0gRKNLv6GSxuRK-55" value="-&amp;gt;" style="rounded=0;whiteSpace=wrap;html=1;" parent="1" vertex="1">
          <mxGeometry x="-40" y="605" width="20" height="140" as="geometry" />
        </mxCell>
        <mxCell id="UK8pHS0gRKNLv6GSxuRK-63" value="Drama" style="rounded=0;whiteSpace=wrap;html=1;" parent="1" vertex="1">
          <mxGeometry x="-808" y="760" width="120" height="40" as="geometry" />
        </mxCell>
        <mxCell id="UK8pHS0gRKNLv6GSxuRK-64" value="1" style="rounded=0;whiteSpace=wrap;html=1;" parent="1" vertex="1">
          <mxGeometry x="-808" y="805" width="120" height="140" as="geometry" />
        </mxCell>
        <mxCell id="UK8pHS0gRKNLv6GSxuRK-65" value="2" style="rounded=0;whiteSpace=wrap;html=1;" parent="1" vertex="1">
          <mxGeometry x="-677.5" y="805" width="120" height="140" as="geometry" />
        </mxCell>
        <mxCell id="UK8pHS0gRKNLv6GSxuRK-66" value="3" style="rounded=0;whiteSpace=wrap;html=1;" parent="1" vertex="1">
          <mxGeometry x="-547" y="805" width="120" height="140" as="geometry" />
        </mxCell>
        <mxCell id="UK8pHS0gRKNLv6GSxuRK-67" value="4" style="rounded=0;whiteSpace=wrap;html=1;" parent="1" vertex="1">
          <mxGeometry x="-418" y="805" width="120" height="140" as="geometry" />
        </mxCell>
        <mxCell id="UK8pHS0gRKNLv6GSxuRK-68" value="5" style="rounded=0;whiteSpace=wrap;html=1;" parent="1" vertex="1">
          <mxGeometry x="-288" y="805" width="120" height="140" as="geometry" />
        </mxCell>
        <mxCell id="UK8pHS0gRKNLv6GSxuRK-69" value="6" style="rounded=0;whiteSpace=wrap;html=1;" parent="1" vertex="1">
          <mxGeometry x="-158" y="805" width="120" height="140" as="geometry" />
        </mxCell>
        <mxCell id="UK8pHS0gRKNLv6GSxuRK-70" value="-&amp;gt;" style="rounded=0;whiteSpace=wrap;html=1;" parent="1" vertex="1">
          <mxGeometry x="-38" y="805" width="20" height="140" as="geometry" />
        </mxCell>
        <mxCell id="UK8pHS0gRKNLv6GSxuRK-71" value="Movies" style="rounded=0;whiteSpace=wrap;html=1;" parent="1" vertex="1">
          <mxGeometry x="-807.5" y="1960" width="120" height="40" as="geometry" />
        </mxCell>
        <mxCell id="UK8pHS0gRKNLv6GSxuRK-103" value="" style="rounded=0;whiteSpace=wrap;html=1;" parent="1" vertex="1">
          <mxGeometry x="-157.5" y="1990" width="120" height="10" as="geometry" />
        </mxCell>
        <mxCell id="UK8pHS0gRKNLv6GSxuRK-104" value="" style="rounded=0;whiteSpace=wrap;html=1;" parent="1" vertex="1">
          <mxGeometry x="-158" y="790" width="120" height="10" as="geometry" />
        </mxCell>
        <mxCell id="UK8pHS0gRKNLv6GSxuRK-105" value="" style="rounded=0;whiteSpace=wrap;html=1;" parent="1" vertex="1">
          <mxGeometry x="-160" y="590" width="120" height="10" as="geometry" />
        </mxCell>
        <mxCell id="L7gm5N8w6A1JBYY2NzbU-11" value="Anime" style="rounded=0;whiteSpace=wrap;html=1;" vertex="1" parent="1">
          <mxGeometry x="-807.5" y="960" width="120" height="40" as="geometry" />
        </mxCell>
        <mxCell id="L7gm5N8w6A1JBYY2NzbU-12" value="1" style="rounded=0;whiteSpace=wrap;html=1;" vertex="1" parent="1">
          <mxGeometry x="-807.5" y="1005" width="120" height="140" as="geometry" />
        </mxCell>
        <mxCell id="L7gm5N8w6A1JBYY2NzbU-13" value="2" style="rounded=0;whiteSpace=wrap;html=1;" vertex="1" parent="1">
          <mxGeometry x="-677" y="1005" width="120" height="140" as="geometry" />
        </mxCell>
        <mxCell id="L7gm5N8w6A1JBYY2NzbU-14" value="3" style="rounded=0;whiteSpace=wrap;html=1;" vertex="1" parent="1">
          <mxGeometry x="-546.5" y="1005" width="120" height="140" as="geometry" />
        </mxCell>
        <mxCell id="L7gm5N8w6A1JBYY2NzbU-15" value="4" style="rounded=0;whiteSpace=wrap;html=1;" vertex="1" parent="1">
          <mxGeometry x="-417.5" y="1005" width="120" height="140" as="geometry" />
        </mxCell>
        <mxCell id="L7gm5N8w6A1JBYY2NzbU-16" value="5" style="rounded=0;whiteSpace=wrap;html=1;" vertex="1" parent="1">
          <mxGeometry x="-287.5" y="1005" width="120" height="140" as="geometry" />
        </mxCell>
        <mxCell id="L7gm5N8w6A1JBYY2NzbU-17" value="6" style="rounded=0;whiteSpace=wrap;html=1;" vertex="1" parent="1">
          <mxGeometry x="-157.5" y="1005" width="120" height="140" as="geometry" />
        </mxCell>
        <mxCell id="L7gm5N8w6A1JBYY2NzbU-18" value="-&amp;gt;" style="rounded=0;whiteSpace=wrap;html=1;" vertex="1" parent="1">
          <mxGeometry x="-37.5" y="1005" width="20" height="140" as="geometry" />
        </mxCell>
        <mxCell id="L7gm5N8w6A1JBYY2NzbU-19" value="" style="rounded=0;whiteSpace=wrap;html=1;" vertex="1" parent="1">
          <mxGeometry x="-157.5" y="990" width="120" height="10" as="geometry" />
        </mxCell>
        <mxCell id="L7gm5N8w6A1JBYY2NzbU-20" value="Thriller" style="rounded=0;whiteSpace=wrap;html=1;" vertex="1" parent="1">
          <mxGeometry x="-807.5" y="1160" width="120" height="40" as="geometry" />
        </mxCell>
        <mxCell id="L7gm5N8w6A1JBYY2NzbU-21" value="1" style="rounded=0;whiteSpace=wrap;html=1;" vertex="1" parent="1">
          <mxGeometry x="-807.5" y="1205" width="120" height="140" as="geometry" />
        </mxCell>
        <mxCell id="L7gm5N8w6A1JBYY2NzbU-22" value="2" style="rounded=0;whiteSpace=wrap;html=1;" vertex="1" parent="1">
          <mxGeometry x="-677" y="1205" width="120" height="140" as="geometry" />
        </mxCell>
        <mxCell id="L7gm5N8w6A1JBYY2NzbU-23" value="3" style="rounded=0;whiteSpace=wrap;html=1;" vertex="1" parent="1">
          <mxGeometry x="-546.5" y="1205" width="120" height="140" as="geometry" />
        </mxCell>
        <mxCell id="L7gm5N8w6A1JBYY2NzbU-24" value="4" style="rounded=0;whiteSpace=wrap;html=1;" vertex="1" parent="1">
          <mxGeometry x="-417.5" y="1205" width="120" height="140" as="geometry" />
        </mxCell>
        <mxCell id="L7gm5N8w6A1JBYY2NzbU-25" value="5" style="rounded=0;whiteSpace=wrap;html=1;" vertex="1" parent="1">
          <mxGeometry x="-287.5" y="1205" width="120" height="140" as="geometry" />
        </mxCell>
        <mxCell id="L7gm5N8w6A1JBYY2NzbU-26" value="6" style="rounded=0;whiteSpace=wrap;html=1;" vertex="1" parent="1">
          <mxGeometry x="-157.5" y="1205" width="120" height="140" as="geometry" />
        </mxCell>
        <mxCell id="L7gm5N8w6A1JBYY2NzbU-27" value="-&amp;gt;" style="rounded=0;whiteSpace=wrap;html=1;" vertex="1" parent="1">
          <mxGeometry x="-37.5" y="1205" width="20" height="140" as="geometry" />
        </mxCell>
        <mxCell id="L7gm5N8w6A1JBYY2NzbU-28" value="" style="rounded=0;whiteSpace=wrap;html=1;" vertex="1" parent="1">
          <mxGeometry x="-157.5" y="1190" width="120" height="10" as="geometry" />
        </mxCell>
        <mxCell id="L7gm5N8w6A1JBYY2NzbU-29" value="Horror" style="rounded=0;whiteSpace=wrap;html=1;" vertex="1" parent="1">
          <mxGeometry x="-807.5" y="1360" width="120" height="40" as="geometry" />
        </mxCell>
        <mxCell id="L7gm5N8w6A1JBYY2NzbU-30" value="1" style="rounded=0;whiteSpace=wrap;html=1;" vertex="1" parent="1">
          <mxGeometry x="-807.5" y="1405" width="120" height="140" as="geometry" />
        </mxCell>
        <mxCell id="L7gm5N8w6A1JBYY2NzbU-31" value="2" style="rounded=0;whiteSpace=wrap;html=1;" vertex="1" parent="1">
          <mxGeometry x="-677" y="1405" width="120" height="140" as="geometry" />
        </mxCell>
        <mxCell id="L7gm5N8w6A1JBYY2NzbU-32" value="3" style="rounded=0;whiteSpace=wrap;html=1;" vertex="1" parent="1">
          <mxGeometry x="-546.5" y="1405" width="120" height="140" as="geometry" />
        </mxCell>
        <mxCell id="L7gm5N8w6A1JBYY2NzbU-33" value="4" style="rounded=0;whiteSpace=wrap;html=1;" vertex="1" parent="1">
          <mxGeometry x="-417.5" y="1405" width="120" height="140" as="geometry" />
        </mxCell>
        <mxCell id="L7gm5N8w6A1JBYY2NzbU-34" value="5" style="rounded=0;whiteSpace=wrap;html=1;" vertex="1" parent="1">
          <mxGeometry x="-287.5" y="1405" width="120" height="140" as="geometry" />
        </mxCell>
        <mxCell id="L7gm5N8w6A1JBYY2NzbU-35" value="6" style="rounded=0;whiteSpace=wrap;html=1;" vertex="1" parent="1">
          <mxGeometry x="-157.5" y="1405" width="120" height="140" as="geometry" />
        </mxCell>
        <mxCell id="L7gm5N8w6A1JBYY2NzbU-36" value="-&amp;gt;" style="rounded=0;whiteSpace=wrap;html=1;" vertex="1" parent="1">
          <mxGeometry x="-37.5" y="1405" width="20" height="140" as="geometry" />
        </mxCell>
        <mxCell id="L7gm5N8w6A1JBYY2NzbU-37" value="" style="rounded=0;whiteSpace=wrap;html=1;" vertex="1" parent="1">
          <mxGeometry x="-157.5" y="1390" width="120" height="10" as="geometry" />
        </mxCell>
        <mxCell id="L7gm5N8w6A1JBYY2NzbU-38" value="Romance" style="rounded=0;whiteSpace=wrap;html=1;" vertex="1" parent="1">
          <mxGeometry x="-807.5" y="1560" width="120" height="40" as="geometry" />
        </mxCell>
        <mxCell id="L7gm5N8w6A1JBYY2NzbU-39" value="1" style="rounded=0;whiteSpace=wrap;html=1;" vertex="1" parent="1">
          <mxGeometry x="-807.5" y="1605" width="120" height="140" as="geometry" />
        </mxCell>
        <mxCell id="L7gm5N8w6A1JBYY2NzbU-40" value="2" style="rounded=0;whiteSpace=wrap;html=1;" vertex="1" parent="1">
          <mxGeometry x="-677" y="1605" width="120" height="140" as="geometry" />
        </mxCell>
        <mxCell id="L7gm5N8w6A1JBYY2NzbU-41" value="3" style="rounded=0;whiteSpace=wrap;html=1;" vertex="1" parent="1">
          <mxGeometry x="-546.5" y="1605" width="120" height="140" as="geometry" />
        </mxCell>
        <mxCell id="L7gm5N8w6A1JBYY2NzbU-42" value="4" style="rounded=0;whiteSpace=wrap;html=1;" vertex="1" parent="1">
          <mxGeometry x="-417.5" y="1605" width="120" height="140" as="geometry" />
        </mxCell>
        <mxCell id="L7gm5N8w6A1JBYY2NzbU-43" value="5" style="rounded=0;whiteSpace=wrap;html=1;" vertex="1" parent="1">
          <mxGeometry x="-287.5" y="1605" width="120" height="140" as="geometry" />
        </mxCell>
        <mxCell id="L7gm5N8w6A1JBYY2NzbU-44" value="6" style="rounded=0;whiteSpace=wrap;html=1;" vertex="1" parent="1">
          <mxGeometry x="-157.5" y="1605" width="120" height="140" as="geometry" />
        </mxCell>
        <mxCell id="L7gm5N8w6A1JBYY2NzbU-45" value="-&amp;gt;" style="rounded=0;whiteSpace=wrap;html=1;" vertex="1" parent="1">
          <mxGeometry x="-37.5" y="1605" width="20" height="140" as="geometry" />
        </mxCell>
        <mxCell id="L7gm5N8w6A1JBYY2NzbU-46" value="" style="rounded=0;whiteSpace=wrap;html=1;" vertex="1" parent="1">
          <mxGeometry x="-157.5" y="1590" width="120" height="10" as="geometry" />
        </mxCell>
        <mxCell id="L7gm5N8w6A1JBYY2NzbU-47" value="Cartoon" style="rounded=0;whiteSpace=wrap;html=1;" vertex="1" parent="1">
          <mxGeometry x="-807.5" y="1760" width="120" height="40" as="geometry" />
        </mxCell>
        <mxCell id="L7gm5N8w6A1JBYY2NzbU-48" value="1" style="rounded=0;whiteSpace=wrap;html=1;" vertex="1" parent="1">
          <mxGeometry x="-807.5" y="1805" width="120" height="140" as="geometry" />
        </mxCell>
        <mxCell id="L7gm5N8w6A1JBYY2NzbU-49" value="2" style="rounded=0;whiteSpace=wrap;html=1;" vertex="1" parent="1">
          <mxGeometry x="-677" y="1805" width="120" height="140" as="geometry" />
        </mxCell>
        <mxCell id="L7gm5N8w6A1JBYY2NzbU-50" value="3" style="rounded=0;whiteSpace=wrap;html=1;" vertex="1" parent="1">
          <mxGeometry x="-546.5" y="1805" width="120" height="140" as="geometry" />
        </mxCell>
        <mxCell id="L7gm5N8w6A1JBYY2NzbU-51" value="4" style="rounded=0;whiteSpace=wrap;html=1;" vertex="1" parent="1">
          <mxGeometry x="-417.5" y="1805" width="120" height="140" as="geometry" />
        </mxCell>
        <mxCell id="L7gm5N8w6A1JBYY2NzbU-52" value="5" style="rounded=0;whiteSpace=wrap;html=1;" vertex="1" parent="1">
          <mxGeometry x="-287.5" y="1805" width="120" height="140" as="geometry" />
        </mxCell>
        <mxCell id="L7gm5N8w6A1JBYY2NzbU-53" value="6" style="rounded=0;whiteSpace=wrap;html=1;" vertex="1" parent="1">
          <mxGeometry x="-157.5" y="1805" width="120" height="140" as="geometry" />
        </mxCell>
        <mxCell id="L7gm5N8w6A1JBYY2NzbU-54" value="-&amp;gt;" style="rounded=0;whiteSpace=wrap;html=1;" vertex="1" parent="1">
          <mxGeometry x="-37.5" y="1805" width="20" height="140" as="geometry" />
        </mxCell>
        <mxCell id="L7gm5N8w6A1JBYY2NzbU-55" value="" style="rounded=0;whiteSpace=wrap;html=1;" vertex="1" parent="1">
          <mxGeometry x="-157.5" y="1790" width="120" height="10" as="geometry" />
        </mxCell>
      </root>
    </mxGraphModel>
  </diagram>
</mxfile>
